<?xml version="1.0" encoding="UTF-8" standalone="no"?>
<!DOCTYPE svg PUBLIC "-//W3C//DTD SVG 1.1//EN"
 "http://www.w3.org/Graphics/SVG/1.1/DTD/svg11.dtd">
<!-- Generated by graphviz version 2.43.0 (0)
 -->
<!-- Title: G Pages: 1 -->
<svg width="2765pt" height="225pt"
 viewBox="0.00 0.00 2765.00 225.48" xmlns="http://www.w3.org/2000/svg" xmlns:xlink="http://www.w3.org/1999/xlink">
<g id="graph0" class="graph" transform="scale(1 1) rotate(0) translate(4 221.48)">
<title>G</title>
<polygon fill="white" stroke="transparent" points="-4,4 -4,-221.48 2761,-221.48 2761,4 -4,4"/>
<g id="clust1" class="cluster">
<title>cluster_G</title>
<path fill="#808080" fill-opacity="0.094118" stroke="black" d="M20,-8C20,-8 2737,-8 2737,-8 2743,-8 2749,-14 2749,-20 2749,-20 2749,-197.48 2749,-197.48 2749,-203.48 2743,-209.48 2737,-209.48 2737,-209.48 20,-209.48 20,-209.48 14,-209.48 8,-203.48 8,-197.48 8,-197.48 8,-20 8,-20 8,-14 14,-8 20,-8"/>
</g>
<g id="clust2" class="cluster">
<title>cluster_core</title>
<path fill="#808080" fill-opacity="0.094118" stroke="black" d="M100,-16C100,-16 2541,-16 2541,-16 2547,-16 2553,-22 2553,-28 2553,-28 2553,-189.48 2553,-189.48 2553,-195.48 2547,-201.48 2541,-201.48 2541,-201.48 100,-201.48 100,-201.48 94,-201.48 88,-195.48 88,-189.48 88,-189.48 88,-28 88,-28 88,-22 94,-16 100,-16"/>
<text text-anchor="middle" x="1320.5" y="-186.28" font-family="Times,serif" font-size="14.00">core</text>
</g>
<g id="clust3" class="cluster">
<title>cluster_core__cost_report</title>
<path fill="#808080" fill-opacity="0.094118" stroke="black" d="M2573,-16C2573,-16 2729,-16 2729,-16 2735,-16 2741,-22 2741,-28 2741,-28 2741,-96.74 2741,-96.74 2741,-102.74 2735,-108.74 2729,-108.74 2729,-108.74 2573,-108.74 2573,-108.74 2567,-108.74 2561,-102.74 2561,-96.74 2561,-96.74 2561,-28 2561,-28 2561,-22 2567,-16 2573,-16"/>
<text text-anchor="middle" x="2651" y="-93.54" font-family="Times,serif" font-size="14.00">core.cost_report</text>
</g>
<!-- core -->
<g id="node1" class="node">
<title>core</title>
<ellipse fill="#ffffff" fill-opacity="0.698039" stroke="black" cx="47" cy="-143.61" rx="30.59" ry="18"/>
<text text-anchor="middle" x="47" y="-139.91" font-family="Times,serif" font-size="14.00" fill="#000000">core</text>
</g>
<!-- core___start -->
<g id="node2" class="node">
<title>core___start</title>
<ellipse fill="#fecccc" fill-opacity="0.698039" stroke="black" cx="715" cy="-50.87" rx="78.48" ry="26.74"/>
<text text-anchor="middle" x="715" y="-54.67" font-family="Times,serif" font-size="14.00" fill="#000000">_start</text>
<text text-anchor="middle" x="715" y="-39.67" font-family="Times,serif" font-size="14.00" fill="#000000">(core.py:183)</text>
</g>
<!-- core___stop_not_supported_message -->
<g id="node3" class="node">
<title>core___stop_not_supported_message</title>
<ellipse fill="#fecccc" fill-opacity="0.698039" stroke="black" cx="1585" cy="-50.87" rx="164.51" ry="26.74"/>
<text text-anchor="middle" x="1585" y="-54.67" font-family="Times,serif" font-size="14.00" fill="#000000">_stop_not_supported_message</text>
<text text-anchor="middle" x="1585" y="-39.67" font-family="Times,serif" font-size="14.00" fill="#000000">(core.py:307)</text>
</g>
<!-- core__autostop -->
<g id="node4" class="node">
<title>core__autostop</title>
<ellipse fill="#fecccc" fill-opacity="0.698039" stroke="black" cx="1053" cy="-143.61" rx="78.48" ry="26.74"/>
<text text-anchor="middle" x="1053" y="-147.41" font-family="Times,serif" font-size="14.00" fill="#000000">autostop</text>
<text text-anchor="middle" x="1053" y="-132.41" font-family="Times,serif" font-size="14.00" fill="#000000">(core.py:408)</text>
</g>
<!-- core__autostop&#45;&gt;core___stop_not_supported_message -->
<g id="edge4" class="edge">
<title>core__autostop&#45;&gt;core___stop_not_supported_message</title>
<path fill="none" stroke="#000000" d="M1109.5,-124.73C1119.91,-121.8 1130.73,-118.99 1141,-116.74 1240.11,-95.05 1353.28,-78.64 1440.56,-67.75"/>
<polygon fill="#000000" stroke="#000000" points="1441.04,-71.22 1450.54,-66.51 1440.18,-64.27 1441.04,-71.22"/>
</g>
<!-- core__cancel -->
<g id="node5" class="node">
<title>core__cancel</title>
<ellipse fill="#fecccc" fill-opacity="0.698039" stroke="black" cx="2292" cy="-143.61" rx="78.48" ry="26.74"/>
<text text-anchor="middle" x="2292" y="-147.41" font-family="Times,serif" font-size="14.00" fill="#000000">cancel</text>
<text text-anchor="middle" x="2292" y="-132.41" font-family="Times,serif" font-size="14.00" fill="#000000">(core.py:579)</text>
</g>
<!-- core__cost_report -->
<g id="node6" class="node">
<title>core__cost_report</title>
<ellipse fill="#fecccc" fill-opacity="0.698039" stroke="black" cx="2467" cy="-143.61" rx="78.48" ry="26.74"/>
<text text-anchor="middle" x="2467" y="-147.41" font-family="Times,serif" font-size="14.00" fill="#000000">cost_report</text>
<text text-anchor="middle" x="2467" y="-132.41" font-family="Times,serif" font-size="14.00" fill="#000000">(core.py:136)</text>
</g>
<!-- core__cost_report__get_total_cost -->
<g id="node18" class="node">
<title>core__cost_report__get_total_cost</title>
<ellipse fill="#ff9999" fill-opacity="0.698039" stroke="black" cx="2651" cy="-50.87" rx="82.05" ry="26.74"/>
<text text-anchor="middle" x="2651" y="-54.67" font-family="Times,serif" font-size="14.00" fill="#000000">get_total_cost</text>
<text text-anchor="middle" x="2651" y="-39.67" font-family="Times,serif" font-size="14.00" fill="#000000">(core.py:169)</text>
</g>
<!-- core__cost_report&#45;&gt;core__cost_report__get_total_cost -->
<g id="edge1" class="edge">
<title>core__cost_report&#45;&gt;core__cost_report__get_total_cost</title>
<path fill="none" stroke="#000000" d="M2521.46,-123.96C2533.35,-119.38 2545.74,-114.21 2557,-108.74 2573.78,-100.59 2591.46,-90.37 2606.9,-80.85"/>
<polygon fill="#000000" stroke="#000000" points="2609.09,-83.61 2615.71,-75.34 2605.38,-77.67 2609.09,-83.61"/>
</g>
<!-- core__down -->
<g id="node7" class="node">
<title>core__down</title>
<ellipse fill="#fecccc" fill-opacity="0.698039" stroke="black" cx="1942" cy="-143.61" rx="78.48" ry="26.74"/>
<text text-anchor="middle" x="1942" y="-147.41" font-family="Times,serif" font-size="14.00" fill="#000000">down</text>
<text text-anchor="middle" x="1942" y="-132.41" font-family="Times,serif" font-size="14.00" fill="#000000">(core.py:375)</text>
</g>
<!-- core__download_logs -->
<g id="node8" class="node">
<title>core__download_logs</title>
<ellipse fill="#fecccc" fill-opacity="0.698039" stroke="black" cx="1760" cy="-143.61" rx="85.62" ry="26.74"/>
<text text-anchor="middle" x="1760" y="-147.41" font-family="Times,serif" font-size="14.00" fill="#000000">download_logs</text>
<text text-anchor="middle" x="1760" y="-132.41" font-family="Times,serif" font-size="14.00" fill="#000000">(core.py:705)</text>
</g>
<!-- core__endpoints -->
<g id="node9" class="node">
<title>core__endpoints</title>
<ellipse fill="#fecccc" fill-opacity="0.698039" stroke="black" cx="1578" cy="-143.61" rx="78.48" ry="26.74"/>
<text text-anchor="middle" x="1578" y="-147.41" font-family="Times,serif" font-size="14.00" fill="#000000">endpoints</text>
<text text-anchor="middle" x="1578" y="-132.41" font-family="Times,serif" font-size="14.00" fill="#000000">(core.py:113)</text>
</g>
<!-- core__job_status -->
<g id="node10" class="node">
<title>core__job_status</title>
<ellipse fill="#fecccc" fill-opacity="0.698039" stroke="black" cx="1403" cy="-143.61" rx="78.48" ry="26.74"/>
<text text-anchor="middle" x="1403" y="-147.41" font-family="Times,serif" font-size="14.00" fill="#000000">job_status</text>
<text text-anchor="middle" x="1403" y="-132.41" font-family="Times,serif" font-size="14.00" fill="#000000">(core.py:747)</text>
</g>
<!-- core__queue -->
<g id="node11" class="node">
<title>core__queue</title>
<ellipse fill="#fecccc" fill-opacity="0.698039" stroke="black" cx="1228" cy="-143.61" rx="78.48" ry="26.74"/>
<text text-anchor="middle" x="1228" y="-147.41" font-family="Times,serif" font-size="14.00" fill="#000000">queue</text>
<text text-anchor="middle" x="1228" y="-132.41" font-family="Times,serif" font-size="14.00" fill="#000000">(core.py:517)</text>
</g>
<!-- core__start -->
<g id="node12" class="node">
<title>core__start</title>
<ellipse fill="#fecccc" fill-opacity="0.698039" stroke="black" cx="715" cy="-143.61" rx="78.48" ry="26.74"/>
<text text-anchor="middle" x="715" y="-147.41" font-family="Times,serif" font-size="14.00" fill="#000000">start</text>
<text text-anchor="middle" x="715" y="-132.41" font-family="Times,serif" font-size="14.00" fill="#000000">(core.py:245)</text>
</g>
<!-- core__start&#45;&gt;core___start -->
<g id="edge2" class="edge">
<title>core__start&#45;&gt;core___start</title>
<path fill="none" stroke="#000000" d="M715,-116.36C715,-107.45 715,-97.32 715,-87.78"/>
<polygon fill="#000000" stroke="#000000" points="718.5,-87.74 715,-77.74 711.5,-87.74 718.5,-87.74"/>
</g>
<!-- core__status -->
<g id="node13" class="node">
<title>core__status</title>
<ellipse fill="#fecccc" fill-opacity="0.698039" stroke="black" cx="884" cy="-143.61" rx="72.25" ry="26.74"/>
<text text-anchor="middle" x="884" y="-147.41" font-family="Times,serif" font-size="14.00" fill="#000000">status</text>
<text text-anchor="middle" x="884" y="-132.41" font-family="Times,serif" font-size="14.00" fill="#000000">(core.py:38)</text>
</g>
<!-- core__stop -->
<g id="node14" class="node">
<title>core__stop</title>
<ellipse fill="#fecccc" fill-opacity="0.698039" stroke="black" cx="2117" cy="-143.61" rx="78.48" ry="26.74"/>
<text text-anchor="middle" x="2117" y="-147.41" font-family="Times,serif" font-size="14.00" fill="#000000">stop</text>
<text text-anchor="middle" x="2117" y="-132.41" font-family="Times,serif" font-size="14.00" fill="#000000">(core.py:317)</text>
</g>
<!-- core__stop&#45;&gt;core___stop_not_supported_message -->
<g id="edge3" class="edge">
<title>core__stop&#45;&gt;core___stop_not_supported_message</title>
<path fill="none" stroke="#000000" d="M2060.5,-124.73C2050.09,-121.8 2039.27,-118.99 2029,-116.74 1929.89,-95.05 1816.72,-78.64 1729.44,-67.75"/>
<polygon fill="#000000" stroke="#000000" points="1729.82,-64.27 1719.46,-66.51 1728.96,-71.22 1729.82,-64.27"/>
</g>
<!-- core__storage_delete -->
<g id="node15" class="node">
<title>core__storage_delete</title>
<ellipse fill="#fecccc" fill-opacity="0.698039" stroke="black" cx="532" cy="-143.61" rx="86.03" ry="26.74"/>
<text text-anchor="middle" x="532" y="-147.41" font-family="Times,serif" font-size="14.00" fill="#000000">storage_delete</text>
<text text-anchor="middle" x="532" y="-132.41" font-family="Times,serif" font-size="14.00" fill="#000000">(core.py:822)</text>
</g>
<!-- core__storage_ls -->
<g id="node16" class="node">
<title>core__storage_ls</title>
<ellipse fill="#fecccc" fill-opacity="0.698039" stroke="black" cx="349" cy="-143.61" rx="78.48" ry="26.74"/>
<text text-anchor="middle" x="349" y="-147.41" font-family="Times,serif" font-size="14.00" fill="#000000">storage_ls</text>
<text text-anchor="middle" x="349" y="-132.41" font-family="Times,serif" font-size="14.00" fill="#000000">(core.py:800)</text>
</g>
<!-- core__tail_logs -->
<g id="node17" class="node">
<title>core__tail_logs</title>
<ellipse fill="#fecccc" fill-opacity="0.698039" stroke="black" cx="174" cy="-143.61" rx="78.48" ry="26.74"/>
<text text-anchor="middle" x="174" y="-147.41" font-family="Times,serif" font-size="14.00" fill="#000000">tail_logs</text>
<text text-anchor="middle" x="174" y="-132.41" font-family="Times,serif" font-size="14.00" fill="#000000">(core.py:666)</text>
</g>
</g>
</svg>

